<svg width="83" height="83" viewBox="0 0 83 83" fill="none" xmlns="http://www.w3.org/2000/svg">
<path fill-rule="evenodd" clip-rule="evenodd" d="M9.3743 37.2831L10.2703 36.387C10.9922 35.6652 12.2583 35.1642 13.5165 34.9845C14.1366 34.8959 14.7229 34.8904 15.2015 34.9621C15.6968 35.0363 16.0005 35.1813 16.1424 35.3231C16.2842 35.4649 16.4292 35.7685 16.5034 36.2639C16.575 36.7424 16.5695 37.3288 16.481 37.9489C16.3012 39.207 15.8002 40.4732 15.0783 41.1951L10.0983 46.1751L8.81427 44.8912C8.59556 44.6724 8.24099 44.6724 8.0223 44.8912C7.80361 45.1098 7.80361 45.4644 8.0223 45.6831L9.70231 47.3631C9.92102 47.5817 10.2756 47.5817 10.4943 47.3631L11.1071 46.7502L12.4181 48.9351C12.5068 49.0831 12.6587 49.1818 12.8299 49.2029C13.001 49.224 13.1724 49.165 13.2942 49.0431L15.5342 46.8031C15.6589 46.6785 15.7176 46.5024 15.6927 46.3279L15.1722 42.6851L15.8703 41.9871C16.8284 41.0289 17.3914 39.4951 17.5896 38.1072C17.6901 37.4043 17.7021 36.7062 17.611 36.098C17.5224 35.5067 17.3244 34.9213 16.9342 34.5311C16.5441 34.1409 15.9587 33.943 15.3673 33.8544C14.7592 33.7633 14.0611 33.7753 13.3581 33.8757C11.9703 34.074 10.4364 34.637 9.47831 35.5951L8.78031 36.2931L5.1375 35.7727C4.96301 35.7478 4.78696 35.8065 4.66232 35.9311L2.42233 38.1711C2.30039 38.293 2.24143 38.4644 2.2625 38.6355C2.28357 38.8067 2.38232 38.9586 2.53019 39.0473L4.71518 40.3583L4.10234 40.9711C3.99732 41.0761 3.93832 41.2186 3.93832 41.3671C3.93832 41.5156 3.99732 41.658 4.10234 41.7631L5.78235 43.4431C6.00104 43.6618 6.35561 43.6618 6.5743 43.4431C6.793 43.2244 6.793 42.8698 6.5743 42.6511L5.29028 41.3671L6.0143 40.6431L9.3743 37.2831ZM13.0095 47.7439L11.9234 45.9339L14.1823 43.675L14.5444 46.2091L13.0095 47.7439ZM5.53151 39.5419L7.79037 37.2831L5.25629 36.9211L3.72145 38.4559L5.53151 39.5419ZM4.33429 44.563C4.55298 44.3444 4.55298 43.9898 4.33429 43.7711C4.1156 43.5524 3.76102 43.5524 3.54232 43.7711L2.42233 44.891C2.20363 45.1098 2.20363 45.4644 2.42233 45.683C2.64102 45.9017 2.9956 45.9017 3.21429 45.683L4.33429 44.563ZM6.01431 46.2431C6.233 46.0244 6.23301 45.6698 6.01432 45.4512C5.79563 45.2324 5.44106 45.2324 5.22236 45.4512L2.98232 47.691C2.76363 47.9098 2.76363 48.2644 2.98232 48.483C3.20102 48.7017 3.55559 48.7017 3.77428 48.4831L6.01431 46.2431ZM7.69429 47.923C7.91298 47.7044 7.91298 47.3498 7.69429 47.131C7.4756 46.9124 7.12102 46.9124 6.90232 47.131L5.78232 48.251C5.56363 48.4698 5.56363 48.8244 5.78232 49.043C6.00102 49.2617 6.3556 49.2617 6.57429 49.043L7.69429 47.923ZM12.3383 40.5257C13.1108 40.5257 13.737 39.8995 13.737 39.1271C13.737 38.3546 13.1108 37.7284 12.3383 37.7284C11.5658 37.7284 10.9396 38.3546 10.9396 39.1271C10.9396 39.8995 11.5658 40.5257 12.3383 40.5257Z" fill="#563FE6"/>
<path d="M23.1514 47L25.2682 36.416H27.7327L26.0091 45.0042H31.3162L30.9079 47H23.1514ZM32.1401 47L33.7579 38.8654H36.1015L34.4837 47H32.1401ZM35.3304 37.7314C34.9171 37.7314 34.5845 37.6155 34.3325 37.3837C34.0805 37.1418 33.9545 36.8494 33.9545 36.5067C33.9545 36.1035 34.0956 35.7709 34.3779 35.5088C34.6702 35.2366 35.0482 35.1006 35.5119 35.1006C35.9251 35.1006 36.2578 35.2165 36.5098 35.4483C36.7719 35.6701 36.9029 35.9473 36.9029 36.2799C36.9029 36.7134 36.7567 37.0662 36.4644 37.3383C36.1822 37.6004 35.8042 37.7314 35.3304 37.7314ZM39.9844 47.121C39.3998 47.121 38.9008 47.005 38.4875 46.7732C38.0743 46.5313 37.7769 46.1886 37.5955 45.745C37.4241 45.2914 37.3989 44.7572 37.5199 44.1423L38.926 37.0662H41.2847L39.8786 44.1272C39.8181 44.4699 39.8534 44.7421 39.9844 44.9437C40.1155 45.1453 40.3574 45.2461 40.7102 45.2461C40.8715 45.2461 41.0327 45.2209 41.194 45.1705C41.3654 45.1201 41.5216 45.0495 41.6627 44.9588L42.0105 46.6371C41.7182 46.8186 41.3956 46.9446 41.0428 47.0151C40.69 47.0857 40.3372 47.121 39.9844 47.121ZM36.9151 40.8613L37.2779 39.0469H42.9177L42.5548 40.8613H36.9151ZM47.3171 47.121C46.4704 47.121 45.7346 46.9698 45.1096 46.6674C44.4947 46.365 44.0159 45.9416 43.6732 45.3973C43.3305 44.853 43.1591 44.2129 43.1591 43.477C43.1591 42.5698 43.3607 41.7634 43.7639 41.0578C44.1772 40.3422 44.7417 39.7777 45.4574 39.3644C46.1831 38.9511 47.0147 38.7445 47.9522 38.7445C48.7485 38.7445 49.4339 38.8957 50.0085 39.1981C50.5831 39.4904 51.0266 39.9037 51.3391 40.4379C51.6616 40.9621 51.8229 41.5921 51.8229 42.3279C51.8229 42.5396 51.8078 42.7513 51.7775 42.963C51.7574 43.1746 51.7271 43.3762 51.6868 43.5678H44.9584L45.2003 42.1918H50.5831L49.6154 42.6152C49.696 42.1616 49.6708 41.7836 49.5398 41.4812C49.4087 41.1687 49.1971 40.9318 48.9047 40.7706C48.6124 40.5992 48.2596 40.5135 47.8463 40.5135C47.3323 40.5135 46.8938 40.6395 46.5309 40.8915C46.1781 41.1334 45.911 41.4711 45.7295 41.9046C45.5481 42.338 45.4574 42.8269 45.4574 43.3712C45.4574 43.9962 45.6287 44.4649 45.9715 44.7774C46.3243 45.0798 46.8535 45.231 47.5591 45.231C47.9723 45.231 48.3705 45.1654 48.7535 45.0344C49.1366 44.9034 49.4642 44.7169 49.7363 44.475L50.7191 46.0323C50.2454 46.4053 49.7111 46.6825 49.1164 46.8639C48.5318 47.0353 47.932 47.121 47.3171 47.121ZM52.6383 47L54.7551 36.416H56.7812L61.3323 44.0818L60.531 44.0365L62.043 36.416H64.4622L62.3454 47H60.3344L55.7682 39.3342L56.5846 39.3795L55.0575 47H52.6383ZM69.0226 47.121C68.1759 47.121 67.4401 46.9698 66.8151 46.6674C66.2002 46.365 65.7214 45.9416 65.3787 45.3973C65.036 44.853 64.8646 44.2129 64.8646 43.477C64.8646 42.5698 65.0662 41.7634 65.4694 41.0578C65.8827 40.3422 66.4472 39.7777 67.1629 39.3644C67.8886 38.9511 68.7202 38.7445 69.6577 38.7445C70.454 38.7445 71.1394 38.8957 71.714 39.1981C72.2885 39.4904 72.7321 39.9037 73.0445 40.4379C73.3671 40.9621 73.5284 41.5921 73.5284 42.3279C73.5284 42.5396 73.5133 42.7513 73.483 42.963C73.4629 43.1746 73.4326 43.3762 73.3923 43.5678H66.6639L66.9058 42.1918H72.2885L71.3209 42.6152C71.4015 42.1616 71.3763 41.7836 71.2453 41.4812C71.1142 41.1687 70.9025 40.9318 70.6102 40.7706C70.3179 40.5992 69.9651 40.5135 69.5518 40.5135C69.0377 40.5135 68.5993 40.6395 68.2364 40.8915C67.8836 41.1334 67.6165 41.4711 67.435 41.9046C67.2536 42.338 67.1629 42.8269 67.1629 43.3712C67.1629 43.9962 67.3342 44.4649 67.6769 44.7774C68.0297 45.0798 68.5589 45.231 69.2645 45.231C69.6778 45.231 70.076 45.1654 70.459 45.0344C70.8421 44.9034 71.1697 44.7169 71.4418 44.475L72.4246 46.0323C71.9509 46.4053 71.4166 46.6825 70.8219 46.8639C70.2373 47.0353 69.6375 47.121 69.0226 47.121ZM77.5039 47.121C76.9192 47.121 76.4203 47.005 76.007 46.7732C75.5937 46.5313 75.2964 46.1886 75.1149 45.745C74.9436 45.2914 74.9184 44.7572 75.0393 44.1423L76.4455 37.0662H78.8042L77.398 44.1272C77.3376 44.4699 77.3728 44.7421 77.5039 44.9437C77.6349 45.1453 77.8768 45.2461 78.2296 45.2461C78.3909 45.2461 78.5522 45.2209 78.7135 45.1705C78.8848 45.1201 79.0411 45.0495 79.1822 44.9588L79.53 46.6371C79.2376 46.8186 78.9151 46.9446 78.5623 47.0151C78.2095 47.0857 77.8567 47.121 77.5039 47.121ZM74.4345 40.8613L74.7974 39.0469H80.4372L80.0743 40.8613H74.4345Z" fill="#563FE6"/>
</svg>
