<svg width="83" height="83" viewBox="0 0 83 83" fill="none" xmlns="http://www.w3.org/2000/svg">
<path d="M17.3886 81.7904H65.6648C68.8658 81.7904 71.9356 80.5189 74.199 78.2555C76.4623 75.9921 77.7339 72.9223 77.7339 69.7214V21.4452C77.7339 19.3112 76.8862 17.2647 75.3773 15.7558C73.8683 14.2468 71.8218 13.3991 69.6879 13.3991H61.6418V5.3531C61.6418 4.28612 61.218 3.26285 60.4635 2.50839C59.7091 1.75393 58.6858 1.33008 57.6188 1.33008C56.5518 1.33008 55.5286 1.75393 54.7741 2.50839C54.0196 3.26285 53.5958 4.28612 53.5958 5.3531V13.3991H29.4577V5.3531C29.4577 4.28612 29.0338 3.26285 28.2794 2.50839C27.5249 1.75393 26.5016 1.33008 25.4347 1.33008C24.3677 1.33008 23.3444 1.75393 22.59 2.50839C21.8355 3.26285 21.4117 4.28612 21.4117 5.3531V13.3991H13.3656C11.2317 13.3991 9.18513 14.2468 7.67621 15.7558C6.16728 17.2647 5.31958 19.3112 5.31958 21.4452V69.7214C5.31958 72.9223 6.59114 75.9921 8.85452 78.2555C11.1179 80.5189 14.1877 81.7904 17.3886 81.7904ZM13.3656 43.5718C13.3656 43.0383 13.5775 42.5266 13.9548 42.1494C14.332 41.7722 14.8436 41.5603 15.3771 41.5603H67.6764C68.2098 41.5603 68.7215 41.7722 69.0987 42.1494C69.4759 42.5266 69.6879 43.0383 69.6879 43.5718V69.7214C69.6879 70.7883 69.264 71.8116 68.5096 72.5661C67.7551 73.3205 66.7318 73.7444 65.6648 73.7444H17.3886C16.3217 73.7444 15.2984 73.3205 14.5439 72.5661C13.7895 71.8116 13.3656 70.7883 13.3656 69.7214V43.5718Z" fill="#281D6A"/>
</svg>
