<svg width="83" height="83" viewBox="0 0 83 83" fill="none" xmlns="http://www.w3.org/2000/svg">
<g clip-path="url(#clip0_148_6076)">
<path d="M79.9144 69.2572C81.2039 70.6359 81.9098 72.4601 81.8841 74.3477C81.8584 76.2352 81.1031 78.0396 79.7766 79.3826C78.45 80.7256 76.6551 81.5031 74.768 81.5521C72.8809 81.6011 71.0481 80.9178 69.6537 79.6454L41.6284 51.9449L13.9279 79.9702C13.2643 80.6964 12.4608 81.2812 11.5657 81.6894C10.6706 82.0976 9.70222 82.3208 8.71872 82.3457C7.73523 82.3705 6.75684 82.1965 5.84224 81.8341C4.92764 81.4716 4.09566 80.9281 3.3962 80.2363C2.69673 79.5445 2.14419 78.7185 1.77172 77.8079C1.39924 76.8974 1.21449 75.9209 1.22856 74.9372C1.24262 73.9535 1.45521 72.9828 1.85357 72.0832C2.25193 71.1837 2.82786 70.3739 3.54682 69.7023L31.2473 41.677L3.22213 13.9907C2.49539 13.3276 1.91007 12.5245 1.50125 11.6297C1.09243 10.7349 0.868543 9.76666 0.843013 8.78318C0.817482 7.7997 0.990835 6.8212 1.35268 5.90635C1.71452 4.9915 2.25739 4.15914 2.94874 3.45921C3.64009 2.75927 4.46568 2.20616 5.376 1.83306C6.28631 1.45996 7.2626 1.27454 8.24632 1.28793C9.23004 1.30132 10.2009 1.51324 11.1007 1.91098C12.0006 2.30872 12.8108 2.8841 13.4828 3.60259L41.5081 31.296L69.2086 3.27073C70.5881 1.98216 72.4128 1.27754 74.3003 1.30453C76.1879 1.33152 77.9917 2.08802 79.3338 3.4155C80.6759 4.74298 81.4522 6.53841 81.4999 8.42553C81.5476 10.3127 80.863 12.145 79.5897 13.5386L51.8891 41.5567L79.9144 69.2572Z" fill="#EFECFF"/>
</g>
<defs>
<clipPath id="clip0_148_6076">
<rect width="82.9872" height="82.9872" fill="white"/>
</clipPath>
</defs>
</svg>
