<svg width="140" height="140" viewBox="0 0 140 140" fill="none" xmlns="http://www.w3.org/2000/svg">
<g clip-path="url(#clip0_300_6583)">
<path d="M160.152 68.365L71.6818 31.7819C66.6808 29.7293 61.0535 29.783 56.034 31.9313C51.0145 34.0795 47.0126 38.147 44.906 43.2417L21.9566 98.7409C19.8499 103.836 19.8104 109.541 21.8468 114.607C23.8831 119.673 27.8291 123.686 32.8193 125.764L121.289 162.348C126.29 164.4 131.918 164.346 136.937 162.198C141.957 160.05 145.959 155.982 148.065 150.888L171.015 95.3886C173.121 90.2939 173.161 84.588 171.124 79.522C169.088 74.4561 165.142 70.4438 160.152 68.365ZM67.591 41.6748L156.061 78.2579C158.479 79.2728 160.388 81.2226 161.372 83.6809C162.357 86.1393 162.336 88.9064 161.314 91.3773L159.044 96.8678L52.3362 52.7435L54.6066 47.253C55.6283 44.7821 57.5677 42.8083 60.0008 41.763C62.4339 40.7177 65.1628 40.686 67.591 41.6748ZM125.38 152.455L36.9101 115.872C34.4927 114.857 32.5831 112.907 31.5988 110.448C30.6145 107.99 30.6355 105.223 31.6573 102.752L48.2454 62.6364L154.953 106.761L138.365 146.876C137.343 149.347 135.404 151.321 132.97 152.366C130.537 153.412 127.808 153.443 125.38 152.455Z" fill="#F6F8FA"/>
<path d="M128.129 130.423L103.878 120.394C102.591 119.862 101.142 119.873 99.8488 120.425C98.5556 120.976 97.5243 122.023 96.9818 123.335C96.4394 124.647 96.4301 126.116 96.9561 127.42C97.4822 128.724 98.5004 129.755 99.7868 130.287L124.038 140.315C125.325 140.847 126.774 140.836 128.067 140.285C129.36 139.733 130.392 138.687 130.934 137.375C131.477 136.063 131.486 134.593 130.96 133.29C130.434 131.986 129.416 130.954 128.129 130.423Z" fill="#F6F8FA"/>
</g>
<defs>
<clipPath id="clip0_300_6583">
<rect width="140" height="140" fill="white"/>
</clipPath>
</defs>
</svg>
