<svg width="19" height="19" viewBox="0 0 19 19" fill="none" xmlns="http://www.w3.org/2000/svg">
<path fill-rule="evenodd" clip-rule="evenodd" d="M16.6251 6.3335C16.6251 5.02182 15.5618 3.9585 14.2501 3.9585H7.91675C6.60508 3.9585 5.54175 5.02182 5.54175 6.3335V15.8335C5.54175 17.1452 6.60508 18.2085 7.91675 18.2085H14.2501C15.5618 18.2085 16.6251 17.1452 16.6251 15.8335V6.3335ZM15.0417 6.3335C15.0417 5.89627 14.6873 5.54183 14.2501 5.54183H7.91675C7.47953 5.54183 7.12508 5.89627 7.12508 6.3335V15.8335C7.12508 16.2707 7.47953 16.6252 7.91675 16.6252H14.2501C14.6873 16.6252 15.0417 16.2707 15.0417 15.8335V6.3335Z" fill="#CDC5FE"/>
<path d="M4.75 2.37484H12.6667C13.1039 2.37484 13.4583 2.02039 13.4583 1.58317C13.4583 1.14595 13.1039 0.791504 12.6667 0.791504H4.75C3.43833 0.791504 2.375 1.85483 2.375 3.1665V14.2498C2.375 14.6871 2.72945 15.0415 3.16667 15.0415C3.60389 15.0415 3.95833 14.6871 3.95833 14.2498V3.1665C3.95833 2.72928 4.31278 2.37484 4.75 2.37484Z" fill="#CDC5FE"/>
</svg>
