<svg width="18" height="21" viewBox="0 0 18 21" fill="none" xmlns="http://www.w3.org/2000/svg">
<path d="M11.7051 9.97835C11.9842 9.97835 12.1935 9.84228 12.3331 9.63818L16.5197 2.83484C16.6592 2.56271 16.5895 2.22254 16.3801 2.01844C16.1708 1.81434 15.8219 1.74631 15.5428 1.88237L8.56513 5.96438C8.3558 6.10044 8.21625 6.30454 8.21625 6.57668C8.21625 8.48161 9.75134 9.97835 11.7051 9.97835Z" fill="#CDC5FE"/>
<path d="M2.07589 15.7609C4.23897 17.8019 7.09982 18.9585 10.1002 18.9585C10.6584 18.9585 11.1469 18.8905 11.6353 18.8224C11.6353 19.0265 11.7051 19.2987 11.7051 19.5028C11.7051 19.911 11.426 20.1831 11.0073 20.1831H1.23857C0.819905 20.1831 0.540798 19.911 0.540798 19.5028C0.540798 18.0741 1.09901 16.7134 2.07589 15.7609Z" fill="#CDC5FE"/>
<path d="M2.98296 0.72572C4.72738 -0.975114 8.91399 0.385553 12.8913 4.05935C13.1704 4.33149 13.1704 4.73969 12.8913 5.01182C12.6122 5.28396 12.1935 5.28396 11.9144 5.01182C8.42555 1.81425 4.93671 0.657687 3.95983 1.67819C2.91318 2.69869 4.30872 6.44052 7.86734 9.91022C11.3562 13.3799 15.1939 14.7406 16.2406 13.7201C17.1477 12.8357 16.3103 9.77416 13.2402 6.37249C12.961 6.10036 13.0308 5.69216 13.3099 5.42002C13.589 5.14789 14.0775 5.21592 14.2868 5.48806C17.7059 9.22989 18.9619 13.0398 17.2174 14.6726C15.3335 16.5095 12.7517 17.53 10.1002 17.53C7.44868 17.53 4.86693 16.5095 2.98296 14.6726C-0.99432 10.7947 -0.99432 4.60362 2.98296 0.72572Z" fill="#CDC5FE"/>
</svg>
