<svg width="83" height="83" viewBox="0 0 83 83" fill="none" xmlns="http://www.w3.org/2000/svg">
<g clip-path="url(#clip0_149_6798)">
<path d="M52.0846 23.1966C51.7302 22.9911 51.3386 22.8579 50.9325 22.8045C50.5263 22.7512 50.1136 22.7788 49.7182 22.8858C49.3227 22.9928 48.9524 23.1771 48.6286 23.4279C48.3047 23.6788 48.0338 23.9913 47.8313 24.3475L29.9676 55.2712C29.7622 55.6256 29.6289 56.0171 29.5756 56.4233C29.5222 56.8295 29.5499 57.2422 29.6569 57.6376C29.7639 58.033 29.9481 58.4034 30.199 58.7272C30.4499 59.0511 30.7624 59.322 31.1185 59.5244C31.5845 59.8087 32.1244 59.9481 32.6697 59.9247C33.2159 59.9224 33.7521 59.7782 34.2258 59.5063C34.6995 59.2344 35.0944 58.844 35.3718 58.3736L53.2355 27.4498C53.4478 27.0973 53.5867 26.7053 53.6437 26.2977C53.7007 25.8901 53.6747 25.4751 53.5672 25.0778C53.4596 24.6804 53.2729 24.309 53.0181 23.9857C52.7633 23.6624 52.4458 23.394 52.0846 23.1966ZM38.3741 33.5045C38.4827 30.6541 37.4601 27.8763 35.5292 25.7767C33.5983 23.6771 30.9157 22.4259 28.0662 22.2959C25.2124 22.426 22.5248 23.6754 20.5859 25.7735C18.647 27.8716 17.6131 30.6493 17.7082 33.5045C17.5996 36.3682 18.6275 39.1587 20.5678 41.2677C22.5081 43.3767 25.2034 44.6331 28.0662 44.7631C30.9247 44.6333 33.6151 43.3751 35.5474 41.2646C37.4798 39.154 38.4963 36.3634 38.3741 33.5045ZM28.0662 38.5083C26.8667 38.3696 25.7682 37.77 25.0025 36.8363C24.2369 35.9026 23.8642 34.7079 23.963 33.5045C23.8511 32.2984 24.219 31.0967 24.9871 30.16C25.7552 29.2233 26.8615 28.6271 28.0662 28.5007C29.2672 28.6268 30.3689 29.2248 31.129 30.1632C31.8891 31.1016 32.2453 32.3035 32.1193 33.5045C32.232 34.7029 31.8708 35.8977 31.1132 36.833C30.3556 37.7683 29.2618 38.3697 28.0662 38.5083ZM55.187 37.9579C52.3375 38.0879 49.6548 39.3391 47.724 41.4387C45.7931 43.5383 44.7705 46.3161 44.8791 49.1665C44.7569 52.0254 45.7734 54.8161 47.7057 56.9266C49.638 59.0371 52.3284 60.2953 55.187 60.4251C58.0498 60.2951 60.7451 59.0387 62.6854 56.9297C64.6256 54.8207 65.6535 52.0302 65.5449 49.1665C65.64 46.3113 64.6061 43.5336 62.6673 41.4355C60.7284 39.3375 58.0408 38.088 55.187 37.9579ZM55.187 54.1703C53.9913 54.0317 52.8976 53.4303 52.14 52.495C51.3823 51.5597 51.0212 50.3649 51.1339 49.1665C51.0212 47.9681 51.3823 46.7733 52.14 45.838C52.8976 44.9027 53.9913 44.3013 55.187 44.1627C56.3917 44.2891 57.498 44.8853 58.2661 45.822C59.0341 46.7587 59.4021 47.9604 59.2901 49.1665C59.389 50.3699 59.0163 51.5646 58.2506 52.4983C57.485 53.432 56.3864 54.0316 55.187 54.1703Z" fill="#281D6A"/>
<path d="M41.6264 3.832C31.3435 3.50821 21.3525 7.27842 13.847 14.3148C6.34159 21.3511 1.93531 31.0784 1.5957 41.3608C1.93531 51.6431 6.34159 61.3704 13.847 68.4068C21.3525 75.4431 31.3435 79.2133 41.6264 78.8895C51.9092 79.2133 61.9003 75.4431 69.4057 68.4068C76.9112 61.3704 81.3175 51.6431 81.6571 41.3608C81.3175 31.0784 76.9112 21.3511 69.4057 14.3148C61.9003 7.27842 51.9092 3.50821 41.6264 3.832ZM41.6264 72.6348C33.0056 72.9462 24.6124 69.8308 18.2827 63.97C11.953 58.1091 8.2021 49.98 7.8505 41.3608C8.2021 32.7416 11.953 24.6124 18.2827 18.7516C24.6124 12.8908 33.0056 9.77532 41.6264 10.0868C50.2471 9.77532 58.6404 12.8908 64.9701 18.7516C71.2998 24.6124 75.0507 32.7416 75.4023 41.3608C75.0507 49.98 71.2998 58.1091 64.9701 63.97C58.6404 69.8308 50.2471 72.9462 41.6264 72.6348Z" fill="#281D6A"/>
</g>
<defs>
<clipPath id="clip0_149_6798">
<rect width="80.0614" height="80.0614" fill="white" transform="translate(1.5957 1.33008)"/>
</clipPath>
</defs>
</svg>
