<svg width="83" height="83" viewBox="0 0 83 83" fill="none" xmlns="http://www.w3.org/2000/svg">
<path d="M60.5581 64.5375H45.4023L28.5415 75.1975C26.0408 76.7821 22.6686 75.0894 22.6686 72.2083V64.5375C11.3018 64.5375 3.72388 57.3347 3.72388 46.5307V24.9224C3.72388 14.1184 11.3018 6.91565 22.6686 6.91565H60.5581C71.925 6.91565 79.5029 14.1184 79.5029 24.9224V46.5307C79.5029 57.3347 71.925 64.5375 60.5581 64.5375Z" stroke="#563FE6" stroke-width="5.85565" stroke-miterlimit="10" stroke-linecap="round" stroke-linejoin="round"/>
<path opacity="0.4" d="M41.6129 39.0763V38.32C41.6129 35.871 43.2043 34.5746 44.7956 33.5301C46.3491 32.5217 47.9026 31.2253 47.9026 28.8484C47.9026 25.5351 45.0987 22.87 41.6129 22.87C38.1271 22.87 35.3232 25.5351 35.3232 28.8484" stroke="#563FE6" stroke-width="5.85565" stroke-linecap="round" stroke-linejoin="round"/>
<path opacity="0.4" d="M41.5964 47.6812H41.6332" stroke="#563FE6" stroke-width="6.889" stroke-linecap="round" stroke-linejoin="round"/>
</svg>
