<svg width="140" height="140" viewBox="0 0 140 140" fill="none" xmlns="http://www.w3.org/2000/svg">
<g clip-path="url(#clip0_300_6581)">
<path d="M146.236 91.9731L129.272 82.386L131.87 82.8046C135.455 83.3551 139.124 82.982 142.533 81.7202C145.942 80.4584 148.979 78.3494 151.358 75.5915C153.738 72.8335 155.381 69.5174 156.134 65.9547C156.887 62.392 156.725 58.6999 155.663 55.2256C154.574 51.7553 152.618 48.6256 149.98 46.133C147.342 43.6404 144.11 41.8675 140.59 40.9824C137.07 40.0974 133.378 40.1294 129.866 41.0756C126.354 42.0217 123.136 43.8506 120.519 46.3889L115.16 51.9105L116.892 44.4893C118.227 39.1138 117.427 33.4381 114.663 28.6613C111.899 23.8845 107.386 20.3807 102.078 18.8901C96.77 17.3995 91.0827 18.039 86.2177 20.6733C81.3527 23.3076 77.6909 27.7305 76.006 33.0076C74.845 36.46 74.5886 40.15 75.2615 43.7223C75.9343 47.2946 77.5138 50.6289 79.8479 53.4041L81.6035 55.4463L64.6396 45.8591C60.4408 43.5648 55.5041 43.0197 50.8921 44.3409C46.2802 45.6622 42.362 48.7443 39.981 52.9237L12.9952 100.674C10.627 104.899 10.0169 109.884 11.2978 114.542C12.5787 119.2 15.6468 123.153 19.8329 125.538L101.26 171.556C105.463 173.912 110.432 174.501 115.083 173.196C119.734 171.89 123.69 168.796 126.088 164.588L153.074 116.838C155.442 112.613 156.052 107.627 154.771 102.969C153.49 98.3115 150.422 94.3587 146.236 91.9731ZM129.714 55.8607C130.709 54.8491 131.953 54.1188 133.318 53.7441C134.683 53.3693 136.121 53.3636 137.485 53.7274C138.239 53.8878 138.962 54.1695 139.625 54.5617C140.663 55.1602 141.558 55.9789 142.247 56.9608C142.936 57.9428 143.402 59.0645 143.614 60.2478C143.826 61.4311 143.778 62.6476 143.473 63.8127C143.169 64.9778 142.615 66.0635 141.85 66.9943C140.942 68.0778 139.768 68.9051 138.444 69.3941C137.121 69.883 135.694 70.0165 134.307 69.7811L117.933 67.2026L129.714 55.8607ZM88.4705 36.8268C88.8735 35.6917 89.5179 34.6572 90.3588 33.7952C91.1998 32.9332 92.2172 32.2645 93.3401 31.8355C94.4631 31.4065 95.6646 31.2276 96.8612 31.3112C98.0578 31.3948 99.2207 31.7389 100.269 32.3196C100.947 32.6854 101.561 33.1591 102.087 33.7223C103.103 34.7037 103.84 35.9386 104.223 37.3014C104.606 38.6641 104.622 40.1059 104.269 41.48L100.501 57.6512L89.7816 45.0679C88.8353 43.9473 88.2131 42.5876 87.9821 41.1354C87.7511 39.6832 87.9199 38.1935 88.4705 36.8268ZM114.778 158.196C114.097 159.402 112.967 160.29 111.636 160.663C110.306 161.036 108.884 160.865 107.685 160.187L26.2581 114.169C25.0583 113.491 24.1785 112.362 23.8121 111.029C23.4457 109.697 23.6228 108.271 24.3045 107.065L41.01 77.5055L131.484 128.637L114.778 158.196ZM137.909 117.268L47.4351 66.1365L51.2903 59.3151C51.9719 58.109 53.1022 57.2216 54.4325 56.8482C55.7629 56.4748 57.1843 56.646 58.384 57.324L139.811 103.342C141.01 104.02 141.89 105.15 142.257 106.482C142.623 107.814 142.446 109.24 141.764 110.446L137.909 117.268Z" fill="#F6F8FA"/>
</g>
<defs>
<clipPath id="clip0_300_6581">
<rect width="140" height="140" fill="white"/>
</clipPath>
</defs>
</svg>
