<svg width="83" height="83" viewBox="0 0 83 83" fill="none" xmlns="http://www.w3.org/2000/svg">
<path d="M41.4935 77.6675C49.512 77.667 57.3034 75.0035 63.6441 70.0952C69.9849 65.1869 74.5159 58.3117 76.5259 50.5492M41.4935 77.6675C33.475 77.667 25.6837 75.0035 19.3429 70.0952C13.0021 65.1869 8.47106 58.3117 6.46108 50.5492M41.4935 77.6675C51.4815 77.6675 59.5805 61.4697 59.5805 41.4936C59.5805 21.5176 51.4815 5.31971 41.4935 5.31971M41.4935 77.6675C31.5055 77.6675 23.4065 61.4697 23.4065 41.4936C23.4065 21.5176 31.5055 5.31971 41.4935 5.31971M76.5259 50.5492C77.2695 47.6552 77.6674 44.6206 77.6674 41.4936C77.6773 35.2721 76.0752 29.1542 73.0171 23.7362M76.5259 50.5492C65.8071 56.4912 53.7492 59.5998 41.4935 59.5806C28.7844 59.5806 16.843 56.3048 6.46108 50.5492M6.46108 50.5492C5.70041 47.5908 5.31688 44.5482 5.31959 41.4936C5.31959 35.0426 7.00771 28.9815 9.96995 23.7362M41.4935 5.31971C47.9093 5.31703 54.2103 7.02132 59.75 10.2577C65.2898 13.4941 69.8687 18.146 73.0171 23.7362M41.4935 5.31971C35.0777 5.31703 28.7767 7.02132 23.237 10.2577C17.6973 13.4941 13.1183 18.146 9.96995 23.7362M73.0171 23.7362C64.2657 31.3164 53.0713 35.4813 41.4935 35.4646C29.4436 35.4646 18.4226 31.0434 9.96995 23.7362" stroke="#563FE6" stroke-width="7.23478" stroke-linecap="round" stroke-linejoin="round"/>
</svg>
