<svg width="20" height="20" viewBox="0 0 20 20" fill="none" xmlns="http://www.w3.org/2000/svg">
<path d="M14.4375 9.85417C16.9688 9.85417 19.0209 7.80213 19.0209 5.27083C19.0209 2.73953 16.9688 0.6875 14.4375 0.6875C11.9063 0.6875 9.85421 2.73953 9.85421 5.27083C9.85421 6.00402 10.0264 6.697 10.3324 7.31155C10.4138 7.47487 10.4409 7.66153 10.3938 7.83778L10.1208 8.85802C10.0023 9.30096 10.4074 9.70612 10.8504 9.5876L11.8706 9.31462C12.0469 9.2675 12.2335 9.29454 12.3969 9.37594C13.0114 9.68202 13.7044 9.85417 14.4375 9.85417Z" stroke="#5F45FD" stroke-width="1.375"/>
<path d="M12.2783 14.0186L12.6959 13.5791L11.6989 12.6322L11.2814 13.0717L12.2783 14.0186ZM14.0697 13.394L15.821 14.4021L16.5069 13.2104L14.7556 12.2023L14.0697 13.394ZM16.1589 16.492L14.8567 17.8629L15.8537 18.8098L17.1559 17.4389L16.1589 16.492ZM14.0732 18.3022C12.7578 18.4321 9.32556 18.3213 5.60009 14.399L4.60314 15.3459C8.66336 19.6206 12.5365 19.8356 14.2083 19.6706L14.0732 18.3022ZM5.60009 14.399C2.04698 10.6582 1.45098 7.50281 1.37669 6.11881L0.00367131 6.1925C0.0946505 7.88763 0.814399 11.3572 4.60314 15.3459L5.60009 14.399ZM6.86082 8.31502L7.12373 8.03818L6.12678 7.09127L5.86387 7.36806L6.86082 8.31502ZM7.33029 4.592L6.17438 2.95713L5.05165 3.75094L6.20756 5.38579L7.33029 4.592ZM2.26205 2.60467L0.823254 4.11945L1.8202 5.0664L3.259 3.55162L2.26205 2.60467ZM6.36234 7.84153C5.86387 7.36806 5.86323 7.36873 5.86259 7.3694C5.86237 7.36964 5.86173 7.37032 5.8613 7.37078C5.86043 7.37171 5.85954 7.37266 5.85864 7.37363C5.85684 7.37557 5.85497 7.3776 5.85304 7.37972C5.8492 7.38394 5.84512 7.38852 5.84083 7.39345C5.83226 7.40331 5.82284 7.41459 5.81276 7.42732C5.79261 7.45278 5.76982 7.48408 5.7459 7.52144C5.69795 7.59639 5.64594 7.69509 5.60189 7.81885C5.51233 8.07054 5.46353 8.40384 5.52452 8.8201C5.64433 9.63786 6.18018 10.7376 7.58025 12.2116L8.57719 11.2647C7.26852 9.88683 6.94617 9.03827 6.88499 8.62073C6.85547 8.41933 6.88546 8.31319 6.89733 8.27982C6.90399 8.26112 6.90835 8.25589 6.90408 8.26258C6.90202 8.26579 6.89789 8.27184 6.89096 8.28064C6.88749 8.28495 6.88332 8.29008 6.87833 8.29577C6.87584 8.2987 6.87313 8.30173 6.87023 8.30494C6.86877 8.30649 6.86726 8.30814 6.86569 8.30979C6.86491 8.31071 6.86411 8.31153 6.8633 8.31236C6.8629 8.31282 6.86227 8.31346 6.86207 8.31373C6.86145 8.31438 6.86082 8.31502 6.36234 7.84153ZM7.58025 12.2116C8.97622 13.6813 10.0305 14.2591 10.8348 14.3897C11.2476 14.4567 11.5817 14.4032 11.8347 14.3034C11.9584 14.2547 12.0562 14.1974 12.1296 14.1453C12.1663 14.1193 12.1968 14.0946 12.2214 14.0731C12.2338 14.0622 12.2446 14.0522 12.254 14.043C12.2588 14.0385 12.2632 14.0341 12.2672 14.0301C12.2692 14.0281 12.2712 14.026 12.273 14.0241C12.2739 14.0232 12.2748 14.0223 12.2758 14.0214C12.2762 14.0209 12.2769 14.0202 12.277 14.02C12.2777 14.0193 12.2783 14.0186 11.7798 13.5452C11.2814 13.0717 11.282 13.0711 11.2826 13.0704C11.2828 13.0701 11.2835 13.0695 11.2838 13.069C11.2847 13.0682 11.2855 13.0674 11.2863 13.0666C11.288 13.0649 11.2895 13.0633 11.291 13.0617C11.2941 13.0587 11.297 13.0557 11.2998 13.0531C11.3053 13.0478 11.3103 13.0432 11.3147 13.0393C11.3234 13.0316 11.3299 13.0267 11.3342 13.0238C11.3428 13.0176 11.3419 13.0197 11.3302 13.0243C11.3125 13.0313 11.2292 13.0607 11.0553 13.0325C10.6863 12.9725 9.89004 12.6468 8.57719 11.2647L7.58025 12.2116ZM6.17438 2.95713C5.24525 1.64302 3.38605 1.42131 2.26205 2.60467L3.259 3.55162C3.73827 3.04704 4.582 3.08667 5.05165 3.75094L6.17438 2.95713ZM1.37669 6.11881C1.35705 5.75279 1.51643 5.38621 1.8202 5.0664L0.823254 4.11945C0.332058 4.63659 -0.041282 5.35497 0.00367131 6.1925L1.37669 6.11881ZM14.8567 17.8629C14.601 18.1322 14.3334 18.2765 14.0732 18.3022L14.2083 19.6706C14.8931 19.6029 15.4473 19.2377 15.8537 18.8098L14.8567 17.8629ZM7.12373 8.03818C8.01068 7.10442 8.07348 5.6431 7.33029 4.592L6.20756 5.38579C6.59452 5.93311 6.53519 6.66129 6.12678 7.09127L7.12373 8.03818ZM15.821 14.4021C16.5734 14.8352 16.7207 15.9006 16.1589 16.492L17.1559 17.4389C18.3521 16.1795 18.0037 14.072 16.5069 13.2104L15.821 14.4021ZM12.6959 13.5791C13.0491 13.2071 13.5997 13.1235 14.0697 13.394L14.7556 12.2023C13.7487 11.6227 12.4998 11.7889 11.6989 12.6322L12.6959 13.5791Z" fill="#5F45FD"/>
</svg>
