<svg width="83" height="83" viewBox="0 0 83 83" fill="none" xmlns="http://www.w3.org/2000/svg">
<g clip-path="url(#clip0_149_6793)">
<path fill-rule="evenodd" clip-rule="evenodd" d="M33.4609 41.5203C33.4609 37.0087 37.115 33.3545 41.6266 33.3545C46.1382 33.3545 49.7923 37.0087 49.7923 41.5203C49.7923 46.0318 46.1382 49.686 41.6266 49.686C37.115 49.686 33.4609 46.0318 33.4609 41.5203ZM70.2067 57.8517H13.0466C10.7928 57.8517 8.9637 56.0226 8.9637 53.7688V29.2717C8.9637 27.0179 10.7928 25.1888 13.0466 25.1888H70.2067C72.4604 25.1888 74.2895 27.0179 74.2895 29.2717V53.7688C74.2895 56.0226 72.4604 57.8517 70.2067 57.8517ZM0.797974 25.1888V57.8517C0.797974 62.3633 4.45214 66.0174 8.9637 66.0174H74.2895C78.8011 66.0174 82.4552 62.3633 82.4552 57.8517V25.1888C82.4552 20.6772 78.8011 17.0231 74.2895 17.0231H8.9637C4.45214 17.0231 0.797974 20.6772 0.797974 25.1888Z" fill="#281D6A"/>
</g>
<defs>
<clipPath id="clip0_149_6793">
<rect width="82.9872" height="82.9872" fill="white"/>
</clipPath>
</defs>
</svg>
