<svg width="83" height="83" viewBox="0 0 83 83" fill="none" xmlns="http://www.w3.org/2000/svg">
<g clip-path="url(#clip0_148_6066)">
<path fill-rule="evenodd" clip-rule="evenodd" d="M38.3107 18.7911L43.1344 13.9671C47.0209 10.0808 53.8375 7.38371 60.6115 6.41611C63.9496 5.93927 67.1062 5.9096 69.6827 6.29545C72.3497 6.69486 73.9844 7.4756 74.7483 8.23903C75.5117 9.00247 76.2926 10.637 76.6917 13.3041C77.0776 15.8805 77.0481 19.0373 76.5711 22.3755C75.6034 29.1493 72.9062 35.9659 69.0194 39.8525L42.2085 66.6637L35.2956 59.7511C34.1182 58.5735 32.2093 58.5735 31.0319 59.7511C29.8545 60.9282 29.8545 62.8372 31.0319 64.0148L40.0767 73.0595C41.2541 74.2365 43.163 74.2365 44.3404 73.0595L47.6398 69.76L54.6977 81.5229C55.1754 82.3195 55.9931 82.8507 56.9146 82.9646C57.836 83.078 58.7585 82.7602 59.4146 82.1042L71.4742 70.0446C72.1453 69.3735 72.4612 68.4256 72.3274 67.4862L69.5253 47.8742L73.2837 44.1162C78.4416 38.9579 81.4728 30.6999 82.54 23.2283C83.0809 19.4438 83.1454 15.6852 82.6552 12.411C82.1782 9.22738 81.1122 6.07585 79.0114 3.97525C76.9112 1.87471 73.7595 0.808893 70.5757 0.332129C67.3015 -0.158207 63.5432 -0.0936948 59.7583 0.446912C52.2869 1.51422 44.0289 4.54536 38.8707 9.70337L35.1128 13.4615L15.5008 10.6598C14.5615 10.5256 13.6136 10.8415 12.9427 11.5125L0.88307 23.5721C0.226594 24.2286 -0.0908204 25.1509 0.0226121 26.0723C0.136051 26.9937 0.66768 27.8116 1.46378 28.2892L13.2272 35.3472L9.92781 38.6466C9.36246 39.212 9.04481 39.9788 9.04481 40.7785C9.04481 41.578 9.36246 42.3449 9.92781 42.9103L18.9726 51.955C20.1499 53.1324 22.0589 53.1324 23.2362 51.955C24.4137 50.7776 24.4137 48.8687 23.2362 47.6913L16.3234 40.7785L20.2213 36.8805L38.3107 18.7911ZM57.8818 75.1096L52.0346 65.3649L64.1956 53.2038L66.145 66.8464L57.8818 75.1096ZM17.6221 30.9523L29.7833 18.7911L16.1404 16.8422L7.8772 25.1054L17.6221 30.9523ZM11.1766 57.9844C12.354 56.8074 12.354 54.8984 11.1766 53.721C9.99921 52.5436 8.09023 52.5436 6.91286 53.721L0.88307 59.7505C-0.294326 60.9282 -0.294326 62.8372 0.88307 64.0142C2.06046 65.1918 3.96941 65.1918 5.14679 64.0142L11.1766 57.9844ZM20.2214 67.0297C21.3988 65.8521 21.3988 63.943 20.2215 62.766C19.0441 61.5884 17.1352 61.5884 15.9577 62.766L3.89796 74.825C2.72058 76.0026 2.72056 77.9117 3.89796 79.0887C5.07534 80.2663 6.98425 80.2663 8.16163 79.0893L20.2214 67.0297ZM29.266 76.0738C30.4433 74.8968 30.4433 72.9877 29.266 71.8101C28.0886 70.6331 26.1796 70.6331 25.0022 71.8101L18.9724 77.8399C17.7951 79.0175 17.7951 80.9266 18.9724 82.1036C20.1498 83.2812 22.0588 83.2812 23.2362 82.1036L29.266 76.0738ZM54.268 36.2489C58.4269 36.2489 61.7982 32.8776 61.7982 28.7188C61.7982 24.5601 58.4269 21.1887 54.268 21.1887C50.1092 21.1887 46.7378 24.5601 46.7378 28.7188C46.7378 32.8776 50.1092 36.2489 54.268 36.2489Z" fill="#563FE6"/>
</g>
<defs>
<clipPath id="clip0_148_6066">
<rect width="82.9872" height="82.9872" fill="white"/>
</clipPath>
</defs>
</svg>
