<svg width="83" height="83" viewBox="0 0 83 83" fill="none" xmlns="http://www.w3.org/2000/svg">
<g clip-path="url(#clip0_149_6806)">
<path d="M9.64093 13.073C6.70446 14.2697 4.7876 16.9621 4.7876 19.9164V37.4922C4.7876 58.2466 20.4488 77.6548 41.4935 82.3666C62.5382 77.6548 78.1994 58.2466 78.1994 37.4922V19.9164C78.1994 16.9621 76.2825 14.2697 73.346 13.073L44.797 1.44304C42.6762 0.58295 40.2699 0.58295 38.1899 1.44304L9.64093 13.073ZM41.4935 22.534C43.7366 22.534 45.5719 24.2168 45.5719 26.2736C45.5719 28.3303 43.7366 30.0131 41.4935 30.0131C39.2503 30.0131 37.415 28.3303 37.415 26.2736C37.415 24.2168 39.2503 22.534 41.4935 22.534ZM41.4935 37.4922C43.7366 37.4922 45.5719 39.175 45.5719 41.2317V56.1899C45.5719 58.2466 43.7366 59.9294 41.4935 59.9294C39.2503 59.9294 37.415 58.2466 37.415 56.1899V41.2317C37.415 39.175 39.2503 37.4922 41.4935 37.4922Z" fill="#563FE6"/>
</g>
<defs>
<clipPath id="clip0_149_6806">
<rect width="82.9872" height="82.9872" fill="white"/>
</clipPath>
</defs>
</svg>
