<svg width="83" height="83" viewBox="0 0 83 83" fill="none" xmlns="http://www.w3.org/2000/svg">
<g clip-path="url(#clip0_149_6810)">
<path d="M18.8848 33.7801V26.1996C18.8848 13.6397 29.0666 3.45789 41.6265 3.45789C54.1863 3.45789 64.3681 13.6397 64.3681 26.1996V33.7801" stroke="#563FE6" stroke-width="5.68542" stroke-linecap="round"/>
<path d="M3.72363 56.5218C3.72363 45.8014 3.72363 40.4412 7.05408 37.1107C10.3845 33.7802 15.7448 33.7802 26.4653 33.7802H56.7876C67.508 33.7802 72.8682 33.7802 76.1987 37.1107C79.5293 40.4412 79.5293 45.8014 79.5293 56.5218C79.5293 67.2423 79.5293 72.6025 76.1987 75.933C72.8682 79.2635 67.508 79.2635 56.7876 79.2635H26.4653C15.7448 79.2635 10.3845 79.2635 7.05408 75.933C3.72363 72.6025 3.72363 67.2423 3.72363 56.5218Z" stroke="#563FE6" stroke-width="5.68542"/>
<path d="M40.1103 64.1024C45.553 64.1024 49.9651 60.7085 49.9651 56.5218C49.9651 52.3352 45.553 48.9413 40.1103 48.9413C34.6677 48.9413 30.2556 52.3352 30.2556 56.5218C30.2556 60.7085 34.6677 64.1024 40.1103 64.1024Z" stroke="#563FE6" stroke-width="5.68542"/>
</g>
<defs>
<clipPath id="clip0_149_6810">
<rect width="82.9872" height="82.9872" fill="white"/>
</clipPath>
</defs>
</svg>
