<svg width="83" height="83" viewBox="0 0 83 83" fill="none" xmlns="http://www.w3.org/2000/svg">
<path fill-rule="evenodd" clip-rule="evenodd" d="M1.33008 19.1976C1.33008 9.18274 9.06214 1.06409 18.6001 1.06409H39.7079C48.186 1.06409 55.059 8.28066 55.059 17.1828V21.2124C55.059 23.4379 53.3409 25.2421 51.2213 25.2421C49.1016 25.2421 47.3835 23.4379 47.3835 21.2124V17.1828C47.3835 12.7317 43.9471 9.12342 39.7079 9.12342H18.6001C13.3012 9.12342 9.00564 13.6338 9.00564 19.1976V63.5239C9.00564 69.0877 13.3012 73.5981 18.6001 73.5981H39.7079C43.9471 73.5981 47.3835 69.9899 47.3835 65.5388V61.5091C47.3835 59.2835 49.1016 57.4794 51.2213 57.4794C53.3409 57.4794 55.059 59.2835 55.059 61.5091V65.5388C55.059 74.4407 48.186 81.6574 39.7079 81.6574H18.6001C9.06214 81.6574 1.33008 73.5389 1.33008 63.5239V19.1976ZM63.8587 26.4223C65.3573 24.8487 67.7874 24.8487 69.2861 26.4223L80.7994 38.5114C82.2981 40.085 82.2981 42.6366 80.7994 44.2101L69.2861 56.2991C67.7874 57.8727 65.3573 57.8727 63.8587 56.2991C62.36 54.7256 62.36 52.174 63.8587 50.6004L68.8206 45.3904H35.8701C33.7505 45.3904 32.0323 43.5863 32.0323 41.3608C32.0323 39.1352 33.7505 37.3311 35.8701 37.3311H68.8206L63.8587 32.1212C62.36 30.5475 62.36 27.996 63.8587 26.4223Z" fill="#FF383C"/>
</svg>
