<svg width="35" height="50" viewBox="0 0 35 50" fill="none" xmlns="http://www.w3.org/2000/svg">
<path d="M17.5 0C7.835 0 0 7.83625 0 17.5C0 27.165 17.5 50 17.5 50C17.5 50 35 27.165 35 17.5C35 7.83625 27.165 0 17.5 0ZM17.5 26.25C15.1794 26.25 12.9538 25.3281 11.3128 23.6872C9.67187 22.0462 8.75 19.8206 8.75 17.5C8.75 15.1794 9.67187 12.9538 11.3128 11.3128C12.9538 9.67187 15.1794 8.75 17.5 8.75C19.8206 8.75 22.0462 9.67187 23.6872 11.3128C25.3281 12.9538 26.25 15.1794 26.25 17.5C26.25 19.8206 25.3281 22.0462 23.6872 23.6872C22.0462 25.3281 19.8206 26.25 17.5 26.25Z" fill="#563FE6"/>
</svg>
