<svg width="83" height="83" viewBox="0 0 83 83" fill="none" xmlns="http://www.w3.org/2000/svg">
<g clip-path="url(#clip0_149_6860)">
<path d="M42.2336 37.1493C41.8542 37.1113 41.3989 37.1113 40.9815 37.1493C31.9515 36.8454 24.7808 29.4386 24.7808 20.3226C24.7808 11.0166 32.293 3.45789 41.6265 3.45789C50.922 3.45789 58.4721 11.0166 58.4721 20.3226C58.4342 29.4386 51.2634 36.8454 42.2336 37.1493Z" stroke="#563FE6" stroke-width="6.31714" stroke-linecap="round" stroke-linejoin="round"/>
<path d="M13.8109 54.4761C0.361538 60.0148 0.361538 69.0409 13.8109 74.5454C29.0943 80.8363 54.1591 80.8363 69.4425 74.5454C82.8918 69.0067 82.8918 59.9806 69.4425 54.4761C54.2147 48.2194 29.1498 48.2194 13.8109 54.4761Z" stroke="#563FE6" stroke-width="6.31714" stroke-linecap="round" stroke-linejoin="round"/>
</g>
<defs>
<clipPath id="clip0_149_6860">
<rect width="82.9872" height="82.9872" fill="white"/>
</clipPath>
</defs>
</svg>
