<svg width="31" height="31" viewBox="0 0 31 31" fill="none" xmlns="http://www.w3.org/2000/svg">
<path d="M5.15232 18.9364L3.189 16.9731C2.38817 16.1723 2.38817 14.8548 3.189 14.0539L5.15232 12.0906C5.48816 11.7548 5.75941 11.096 5.75941 10.631V7.85388C5.75941 6.71721 6.68941 5.78724 7.82607 5.78724H10.6032C11.0682 5.78724 11.7269 5.51603 12.0627 5.1802L14.0261 3.21684C14.8269 2.416 16.1444 2.416 16.9452 3.21684L18.9086 5.1802C19.2444 5.51603 19.9032 5.78724 20.3682 5.78724H23.1452C24.2819 5.78724 25.2119 6.71721 25.2119 7.85388V10.631C25.2119 11.096 25.4832 11.7548 25.819 12.0906L27.7823 14.0539C28.5832 14.8548 28.5832 16.1723 27.7823 16.9731L25.819 18.9364C25.4832 19.2723 25.2119 19.931 25.2119 20.396V23.173C25.2119 24.3096 24.2819 25.2398 23.1452 25.2398H20.3682C19.9032 25.2398 19.2444 25.511 18.9086 25.8469L16.9452 27.8102C16.1444 28.611 14.8269 28.611 14.0261 27.8102L12.0627 25.8469C11.7269 25.511 11.0682 25.2398 10.6032 25.2398H7.82607C6.68941 25.2398 5.75941 24.3096 5.75941 23.173V20.396C5.75941 19.9181 5.48816 19.2594 5.15232 18.9364Z" stroke="#CDC5FE" stroke-width="1.9375" stroke-linecap="round" stroke-linejoin="round"/>
<path d="M11.625 19.375L19.375 11.625" stroke="#CDC5FE" stroke-width="1.9375" stroke-linecap="round" stroke-linejoin="round"/>
<path d="M18.7221 18.7292H18.7349" stroke="#CDC5FE" stroke-width="2.58333" stroke-linecap="round" stroke-linejoin="round"/>
<path d="M12.2637 12.2708H12.2766" stroke="#CDC5FE" stroke-width="2.58333" stroke-linecap="round" stroke-linejoin="round"/>
</svg>
