<svg width="83" height="83" viewBox="0 0 83 83" fill="none" xmlns="http://www.w3.org/2000/svg">
<g clip-path="url(#clip0_148_6080)">
<path d="M68.8901 41.4937V64.4349C68.8901 72.0371 56.5647 78.1996 41.3607 78.1996C26.1566 78.1996 13.8313 72.0371 13.8313 64.4349V41.4937M68.8901 41.4937V18.5525M68.8901 41.4937C68.8901 49.096 56.5647 55.2584 41.3607 55.2584C26.1566 55.2584 13.8313 49.096 13.8313 41.4937M13.8313 41.4937V18.5525M68.8901 18.5525C68.8901 10.9505 56.5647 4.78784 41.3607 4.78784C26.1566 4.78784 13.8313 10.9505 13.8313 18.5525M68.8901 18.5525C68.8901 26.1546 56.5647 32.3173 41.3607 32.3173C26.1566 32.3173 13.8313 26.1546 13.8313 18.5525" stroke="#34268B" stroke-width="9.17647" stroke-linecap="round" stroke-linejoin="round"/>
</g>
<defs>
<clipPath id="clip0_148_6080">
<rect width="82.9872" height="82.9872" fill="white"/>
</clipPath>
</defs>
</svg>
