<svg width="140" height="140" viewBox="0 0 140 140" fill="none" xmlns="http://www.w3.org/2000/svg">
<g clip-path="url(#clip0_300_6573)">
<path d="M105.417 2.00529C104.593 1.53835 103.613 1.151 102.289 0.901147C99.6424 0.398896 98.0411 0.944362 96.3226 1.39603C94.6049 1.8465 92.9323 2.43403 91.2929 3.03593C88.0137 4.24067 84.1981 5.43126 84.5994 5.38013C85 5.33078 81.043 5.14174 77.5674 4.80129C75.8303 4.63014 74.0048 4.48439 72.2299 4.47765C70.4534 4.47324 68.8131 4.34776 66.3762 5.49897C63.9396 6.64944 62.962 8.00793 61.8366 9.38296C60.7115 10.7581 59.7145 12.2448 58.7416 13.6955C56.7957 16.5967 54.4062 19.7311 54.7009 19.4537C54.9957 19.1762 51.6605 21.3625 48.6478 23.1298C47.1412 24.0139 45.575 24.9806 44.1348 26.0209C42.6946 27.0612 41.3427 27.9437 40.0469 30.307C38.7513 32.6702 38.7503 34.3027 38.6476 36.0764C38.5446 37.8507 38.6099 39.6411 38.6748 41.3864C38.8048 44.8767 38.7439 48.863 38.8194 48.4653C38.8944 48.0683 37.4774 51.8109 36.0781 55.0118C35.3792 56.6113 34.6706 58.256 34.1163 59.9442C33.5613 61.6335 32.9192 63.1822 33.2594 65.8554C33.5994 68.5288 34.6027 69.8554 35.5616 71.3507C36.5212 72.8449 37.641 74.263 38.7198 75.6353C40.8758 78.3821 43.1656 81.6709 42.9931 81.3047C42.8187 80.9416 43.869 84.7226 44.6173 88.1339C44.9911 89.8402 45.3798 91.5871 45.9234 93.2781C46.4664 94.9701 46.8839 96.5976 48.7304 98.5588C50.5759 100.522 52.1444 101.02 53.798 101.666C55.453 102.311 57.1628 102.852 58.8429 103.328C62.2017 104.282 65.9893 105.532 65.6344 105.338C65.2798 105.144 68.3716 107.622 70.9814 109.942C72.2864 111.102 73.6207 112.285 75.0549 113.332C76.4848 114.386 77.7688 115.426 80.4151 115.928C83.0615 116.431 84.6418 115.924 86.3595 115.473C88.0773 115.023 89.8221 114.421 91.4607 113.821C94.74 112.616 98.4788 111.448 98.0774 111.499C97.6768 111.548 101.674 111.759 105.149 112.1C106.886 112.271 108.677 112.385 110.452 112.392C112.229 112.396 113.864 112.531 116.301 111.38C118.737 110.23 119.715 108.871 120.84 107.496C121.965 106.121 122.962 104.634 123.935 103.184C125.881 100.282 128.298 97.0983 128.003 97.3757C127.708 97.6533 131.043 95.4671 134.056 93.6996C135.563 92.8155 137.102 91.8985 138.542 90.8582C139.982 89.8179 141.334 88.9356 142.63 86.5722C143.925 84.2089 143.926 82.5764 144.029 80.8027C144.132 79.0284 144.104 77.1937 144.039 75.4484C143.909 71.9579 143.938 68.0062 143.863 68.4038C143.788 68.8008 145.205 65.0582 146.604 61.8573C147.305 60.2558 148.012 58.6131 148.566 56.925C149.121 55.2357 149.763 53.687 149.423 51.0138C149.083 48.3404 148.074 47.024 147.115 45.5284C146.156 44.0343 145.061 42.5687 143.984 41.1941C141.828 38.4473 139.51 35.2096 139.684 35.5744C139.858 35.9375 138.85 32.1033 138.102 28.691C137.728 26.9847 137.324 25.2425 136.781 23.5513C136.237 21.8593 135.82 20.2319 133.973 18.2706C132.128 16.3077 130.539 15.8473 128.884 15.2028C127.229 14.5582 125.514 14.0267 123.834 13.5511C120.475 12.5973 116.689 11.3444 117.042 11.541C117.397 11.7354 114.332 9.20739 111.722 6.88766C110.418 5.72782 109.061 4.58429 107.627 3.53703C106.912 3.00983 106.242 2.47228 105.417 2.00529ZM103.876 35.9421C104.658 36.378 105.328 36.9901 105.833 37.7302C106.338 38.4703 106.665 39.3182 106.787 40.2074L108.315 51.4141L116.201 60.6091C116.779 61.2847 117.194 62.0852 117.414 62.9486C117.633 63.812 117.651 64.7151 117.465 65.588C117.28 66.4608 116.897 67.2798 116.346 67.9817C115.794 68.6836 115.09 69.2493 114.286 69.6352L104.103 74.6041L97.7874 84.9941C97.3252 85.7523 96.6963 86.3949 95.9488 86.8727C95.2013 87.3505 94.3551 87.6507 93.4751 87.7505C92.5952 87.8502 91.7048 87.7467 90.8724 87.4479C90.0399 87.1492 89.2875 86.6631 88.6728 86.027L80.826 77.8476L69.0537 75.0504C68.1824 74.8521 67.3694 74.4543 66.6783 73.8882C65.9872 73.322 65.4368 72.6028 65.0701 71.7869C64.7035 70.971 64.5305 70.0805 64.5647 69.1851C64.5989 68.2896 64.8394 67.4135 65.2674 66.6253L70.6416 56.6113L69.7081 44.529C69.6353 43.6437 69.7662 42.7528 70.0909 41.9247C70.4155 41.0967 70.9252 40.3536 71.5807 39.7528C72.2362 39.152 73.02 38.7094 73.8718 38.4591C74.7236 38.2089 75.6206 38.1576 76.4939 38.3092L87.6702 40.3542L98.8716 35.6714C99.607 35.3654 100.397 35.214 101.192 35.2268C101.987 35.2395 102.77 35.4161 103.493 35.7455C103.623 35.8062 103.751 35.8719 103.876 35.9421Z" fill="#F6F8FA"/>
<path d="M33.2417 80.0781L24.3462 96.3412C21.9589 100.706 21.4158 105.619 22.4969 110.324C23.0371 112.676 24.0133 115.046 25.8891 117.061C27.7646 119.077 30.7519 120.557 33.8335 120.67L56.8374 121.539L69.978 140.44C70.4966 141.18 71.1809 141.789 71.9762 142.218C80.3472 146.797 91.003 143.676 95.5816 135.305L104.439 119.112C101.889 118.916 98.6753 118.685 98.9849 118.647C99.4406 118.589 95.1954 119.913 91.4744 121.28C89.6154 121.962 87.6347 122.64 85.6858 123.151C83.7369 123.662 81.9452 124.243 78.9428 123.673C75.9403 123.103 74.4824 121.918 72.8605 120.72C71.2339 119.531 69.727 118.197 68.2459 116.879C65.2847 114.247 61.7743 111.44 62.1761 111.661C62.5787 111.881 58.2779 110.451 54.4671 109.368C52.561 108.828 50.6172 108.22 48.7407 107.489C46.8645 106.755 45.0926 106.188 42.999 103.961C40.9037 101.736 40.4246 99.8857 39.8076 97.9662C39.1906 96.0475 38.7472 94.0668 38.3241 92.131C37.4752 88.2605 36.2935 83.9738 36.4903 84.3863C36.6216 84.6649 34.7329 82.0907 33.2417 80.0781Z" fill="#F6F8FA"/>
</g>
<defs>
<clipPath id="clip0_300_6573">
<rect width="140" height="140" fill="white"/>
</clipPath>
</defs>
</svg>
