<svg width="83" height="83" viewBox="0 0 83 83" fill="none" xmlns="http://www.w3.org/2000/svg">
<g clip-path="url(#clip0_148_6082)">
<path d="M39.3824 22.864C38.7329 23.5044 38.3644 24.3766 38.358 25.2887C38.3516 26.2008 38.7077 27.0782 39.3482 27.7277C39.9886 28.3772 40.8608 28.7457 41.7729 28.7521C42.685 28.7585 43.5623 28.4023 44.2118 27.7619L57.0903 15.0205V76.2958C57.0903 77.2042 57.4511 78.0754 58.0935 78.7178C58.7358 79.3601 59.607 79.7209 60.5154 79.7209C61.4238 79.7209 62.295 79.3601 62.9373 78.7178C63.5797 78.0754 63.9405 77.2042 63.9405 76.2958V15.0205L76.6134 27.7619C76.9328 28.079 77.3115 28.3301 77.7279 28.5009C78.1443 28.6716 78.5902 28.7587 79.0403 28.7571C79.4903 28.7555 79.9356 28.6653 80.3508 28.4916C80.766 28.3179 81.1429 28.0641 81.46 27.7448C81.7771 27.4254 82.0282 27.0467 82.1989 26.6304C82.3697 26.214 82.4568 25.768 82.4552 25.318C82.4536 24.8679 82.3634 24.4226 82.1897 24.0074C82.016 23.5922 81.7622 23.2153 81.4429 22.8982L60.5154 1.97077L39.3824 22.864Z" fill="#8E8AA7"/>
<path d="M44.9324 57.7661C44.9364 57.0858 44.7376 56.4197 44.3616 55.8527C43.9855 55.2858 43.4491 54.8437 42.8208 54.5829C42.1924 54.322 41.5007 54.2541 40.8336 54.3879C40.1666 54.5218 39.5545 54.8512 39.0755 55.3342L26.2655 68.0414L26.2655 6.8003C26.2655 5.89191 25.9047 5.02072 25.2623 4.37838C24.62 3.73605 23.7488 3.37519 22.8404 3.37519C21.932 3.37519 21.0608 3.73605 20.4185 4.37838C19.7761 5.02072 19.4153 5.89191 19.4153 6.8003L19.4153 68.0414L6.6396 55.3342C6.32025 55.0171 5.94156 54.766 5.52517 54.5953C5.10878 54.4245 4.66283 54.3375 4.21278 54.339C3.76274 54.3406 3.31742 54.4308 2.90224 54.6045C2.48706 54.7782 2.11017 55.032 1.79306 55.3514C1.47596 55.6707 1.22486 56.0494 1.0541 56.4658C0.88335 56.8822 0.796283 57.3281 0.797873 57.7782C0.801085 58.6871 1.16522 59.5575 1.81019 60.1979L22.8404 81.1254L43.8706 60.1979C44.2005 59.8835 44.4643 59.5066 44.6466 59.089C44.8289 58.6714 44.9261 58.2217 44.9324 57.7661Z" fill="#8E8AA7"/>
</g>
<defs>
<clipPath id="clip0_148_6082">
<rect width="82.9872" height="82.9872" fill="white"/>
</clipPath>
</defs>
</svg>
