<svg width="140" height="140" viewBox="0 0 140 140" fill="none" xmlns="http://www.w3.org/2000/svg">
<g clip-path="url(#clip0_300_6566)">
<path d="M115.341 110.88C112.509 113.987 110.662 117.864 110.033 122.021C109.404 126.177 110.022 130.427 111.809 134.232C113.595 138.038 116.47 141.228 120.069 143.4C123.669 145.572 127.832 146.627 132.031 146.433C136.231 146.239 140.278 144.804 143.662 142.309C147.046 139.814 149.614 136.373 151.042 132.418C152.469 128.464 152.693 124.176 151.683 120.095C150.673 116.014 148.476 112.324 145.369 109.492C141.201 105.698 135.698 103.713 130.068 103.973C124.438 104.233 119.141 106.718 115.341 110.88Z" fill="#F6F8FA"/>
<path d="M67.5353 128.166C67.6732 130.981 68.9237 133.626 71.0118 135.519C73.0998 137.412 75.8543 138.398 78.6694 138.26C81.4844 138.122 84.1293 136.872 86.0223 134.784C87.9153 132.696 88.9013 129.941 88.7634 127.126C88.405 115.961 92.4148 105.096 99.9406 96.8407C107.466 88.5852 117.915 83.59 129.066 82.9165C130.466 82.8607 131.841 82.5264 133.11 81.9329C134.38 81.3395 135.518 80.4989 136.459 79.4603C137.872 77.9087 138.795 75.9733 139.11 73.898C139.425 71.8227 139.119 69.7005 138.23 67.7992C137.34 65.8978 135.908 64.3024 134.113 63.2142C132.318 62.126 130.241 61.5936 128.144 61.6843C93.945 63.1467 65.8371 93.9799 67.5353 128.166Z" fill="#F6F8FA"/>
<path d="M126.221 19.4835C112.282 19.9768 98.5817 23.2487 85.9241 29.1073C73.2664 34.9659 61.9061 43.2933 52.5096 53.6008C43.1131 63.9084 35.8696 75.9886 31.204 89.1329C26.5384 102.277 24.5447 116.221 25.3397 130.146C25.4854 132.961 26.7433 135.602 28.8366 137.489C30.9298 139.376 33.6871 140.355 36.5017 140.209C39.3163 140.063 41.9578 138.805 43.845 136.712C45.7322 134.619 46.7106 131.862 46.5648 129.047C44.1926 83.4603 81.4742 42.5639 127.085 40.7194C129.901 40.6048 132.557 39.3762 134.467 37.3039C136.377 35.2316 137.386 32.4853 137.271 29.6692C137.157 26.8532 135.928 24.198 133.856 22.2878C131.783 20.3776 129.037 19.3688 126.221 19.4835Z" fill="#F6F8FA"/>
</g>
<defs>
<clipPath id="clip0_300_6566">
<rect width="140" height="140" fill="white"/>
</clipPath>
</defs>
</svg>
